{
  "accessors": [
    {
      "bufferView": 2,
      "componentType": 5126,
      "count": 391,
      "max": [
        0.28499999642372131,
        0.28499999642372131,
        0.19501000642776489
      ],
      "min": [
        -0.28499999642372131,
        -0.28499999642372131,
        -0.19497999548912048
      ],
      "type": "VEC3"
    },
    {
      "bufferView": 2,
      "byteOffset": 4692,
      "componentType": 5126,
      "count": 391,
      "max": [
        1,
        1,
        1
      ],
      "min": [
        -1,
        -1,
        -1
      ],
      "type": "VEC3"
    },
    {
      "bufferView": 3,
      "componentType": 5126,
      "count": 391,
      "max": [
        1,
        1,
        0.61509120464324951,
        1
      ],
      "min": [
        -0.04871547594666481,
        -0.050949089229106903,
        -0.15713010728359222,
        -1
      ],
      "type": "VEC4"
    },
    {
      "bufferView": 1,
      "componentType": 5126,
      "count": 391,
      "max": [
        0.99989998340606689,
        0.99989998340606689
      ],
      "min": [
        9.9999997473787516e-05,
        9.9999997473787516e-05
      ],
      "type": "VEC2"
    },
    {
      "bufferView": 0,
      "componentType": 5125,
      "count": 507,
      "max": [
        390
      ],
      "min": [
        0
      ],
      "type": "SCALAR"
    },
    {
      "bufferView": 2,
      "byteOffset": 9384,
      "componentType": 5126,
      "count": 560,
      "max": [
        0.28310999274253845,
        0.27090999484062195,
        0.18636000156402588
      ],
      "min": [
        -0.28310999274253845,
        -0.14147000014781952,
        0.18255999684333801
      ],
      "type": "VEC3"
    },
    {
      "bufferView": 2,
      "byteOffset": 16104,
      "componentType": 5126,
      "count": 560,
      "max": [
        0.99868172407150269,
        0.99868476390838623,
        0.99748879671096802
      ],
      "min": [
        -0.99868321418762207,
        -0.99868476390838623,
        -0.99748724699020386
      ],
      "type": "VEC3"
    },
    {
      "bufferView": 3,
      "byteOffset": 6256,
      "componentType": 5126,
      "count": 560,
      "max": [
        0.99874502420425415,
        0.99868053197860718,
        0.70694410800933838,
        1
      ],
      "min": [
        -0.70712178945541382,
        -0.7070918083190918,
        -0.70695912837982178,
        -1
      ],
      "type": "VEC4"
    },
    {
      "bufferView": 0,
      "byteOffset": 2028,
      "componentType": 5125,
      "count": 2700,
      "max": [
        559
      ],
      "min": [
        0
      ],
      "type": "SCALAR"
    }
  ],
  "asset": {
    "generator": "Sketchfab (OSG glTF plugin)",
    "version": "2.0"
  },
  "bufferViews": [
    {
      "buffer": 0,
      "byteLength": 12828,
      "byteOffset": 0,
      "name": "floatBufferViews",
      "target": 34963
    },
    {
      "buffer": 0,
      "byteLength": 3128,
      "byteOffset": 12828,
      "byteStride": 8,
      "name": "floatBufferViews",
      "target": 34962
    },
    {
      "buffer": 0,
      "byteLength": 22824,
      "byteOffset": 15956,
      "byteStride": 12,
      "name": "floatBufferViews",
      "target": 34962
    },
    {
      "buffer": 0,
      "byteLength": 15216,
      "byteOffset": 38780,
      "byteStride": 16,
      "name": "floatBufferViews",
      "target": 34962
    }
  ],
  "buffers": [
    {
      "byteLength": 53996,
      "uri": "c_table.bin"
    }
  ],
  "images": [
    {
      "uri": "textures/Wood_baseColor.png"
    },
    {
      "uri": "textures/Wood_normal.png"
    },
    {
      "uri": "textures/Wood_metallicRoughness.png"
    }
  ],
  "materials": [
    {
      "doubleSided": true,
      "name": "Wood",
      "normalTexture": {
        "index": 1,
        "scale": 1,
        "texCoord": 0
      },
      "pbrMetallicRoughness": {
        "baseColorFactor": [
          1,
          1,
          1,
          1
        ],
        "baseColorTexture": {
          "index": 0,
          "texCoord": 0
        },
        "metallicFactor": 0,
        "metallicRoughnessTexture": {
          "index": 2,
          "texCoord": 0
        },
        "roughnessFactor": 1
      }
    },
    {
      "alphaCutoff": 0.5,
      "alphaMode": "BLEND",
      "doubleSided": true,
      "name": "Glass",
      "pbrMetallicRoughness": {
        "baseColorFactor": [
          1,
          1,
          1,
          0.14999999999999999
        ],
        "metallicFactor": 0,
        "roughnessFactor": 0.001
      }
    }
  ],
  "meshes": [
    {
      "name": "CTable_0",
      "primitives": [
        {
          "attributes": {
            "NORMAL": 1,
            "POSITION": 0,
            "TANGENT": 2,
            "TEXCOORD_0": 3
          },
          "indices": 4,
          "material": 0,
          "mode": 4
        }
      ]
    },
    {
      "name": "CTable_1",
      "primitives": [
        {
          "attributes": {
            "NORMAL": 6,
            "POSITION": 5,
            "TANGENT": 7
          },
          "indices": 8,
          "material": 1,
          "mode": 4
        }
      ]
    }
  ],
  "nodes": [
    {
      "children": [
        1
      ],
      "name": "RootNode (gltf orientation matrix)",
      "rotation": [
        -0.70710678118654746,
        -0,
        -0,
        0.70710678118654757
      ]
    },
    {
      "children": [
        2
      ],
      "name": "RootNode (model correction matrix)"
    },
    {
      "children": [
        3
      ],
      "name": "Root"
    },
    {
      "children": [
        6
      ],
      "matrix": [
        1,
        0,
        0,
        0,
        0,
        1,
        0,
        0,
        0,
        0,
        1,
        0,
        0,
        0,
        0.20047000000000001,
        1
      ],
      "name": "CTable"
    },
    {
      "mesh": 0,
      "name": "CTable_0"
    },
    {
      "mesh": 1,
      "name": "CTable_1"
    },
    {
      "children": [
        4,
        5
      ],
      "name": "Geode"
    }
  ],
  "samplers": [
    {
      "magFilter": 9729,
      "minFilter": 9987,
      "wrapS": 10497,
      "wrapT": 10497
    }
  ],
  "scene": 0,
  "scenes": [
    {
      "name": "OSG_Scene",
      "nodes": [
        0
      ]
    }
  ],
  "textures": [
    {
      "sampler": 0,
      "source": 0
    },
    {
      "sampler": 0,
      "source": 1
    },
    {
      "sampler": 0,
      "source": 2
    }
  ]
}

